<?xml version="1.0" encoding="UTF-8" standalone="no"?>
<svg
   viewBox="0 0 32 32"
   version="1.1"
   id="svg52"
   sodipodi:docname="icon.svg"
   inkscape:version="1.2.1 (9c6d41e410, 2022-07-14, custom)"
   inkscape:export-filename="icon_256x256.png"
   inkscape:export-xdpi="768"
   inkscape:export-ydpi="768"
   xmlns:inkscape="http://www.inkscape.org/namespaces/inkscape"
   xmlns:sodipodi="http://sodipodi.sourceforge.net/DTD/sodipodi-0.dtd"
   xmlns="http://www.w3.org/2000/svg"
   xmlns:svg="http://www.w3.org/2000/svg">
  <defs
     id="defs56" />
  <sodipodi:namedview
     id="namedview54"
     pagecolor="#ffffff"
     bordercolor="#000000"
     borderopacity="0.25"
     inkscape:showpageshadow="2"
     inkscape:pageopacity="0.0"
     inkscape:pagecheckerboard="0"
     inkscape:deskcolor="#d1d1d1"
     showgrid="true"
     inkscape:zoom="23.21875"
     inkscape:cx="6.4818304"
     inkscape:cy="16.021534"
     inkscape:window-width="2482"
     inkscape:window-height="1287"
     inkscape:window-x="0"
     inkscape:window-y="44"
     inkscape:window-maximized="1"
     inkscape:current-layer="svg52"
     showguides="true">
    <inkscape:grid
       type="xygrid"
       id="grid1133" />
  </sodipodi:namedview>
  <title
     id="title2">icon</title>
  <polygon
     points="10.457,15.382 10.457,11.092 16.014,13.839 16.014,18.307 "
     style="fill:#6483c0"
     id="polygon4"
     transform="translate(0,-4.9540254)" />
  <path
     d="m 16.2,13.658975 -5.926,-3.12 V 5.8459746 l 5.926,2.924 z m -5.558,-3.343 5.188,2.73 V 8.9989746 l -5.188,-2.564 z"
     id="path6" />
  <polygon
     points="21.315,11.354 16.371,13.839 16.371,18.307 21.315,15.814 "
     style="fill:#6483c0"
     id="polygon8"
     transform="translate(0,-4.9540254)" />
  <path
     d="M 16.186,13.652975 V 8.7709746 l 5.313,-2.67 v 4.8730004 z m 0.369,-4.6550004 v 4.0550004 l 4.575,-2.307 V 6.6989746 Z"
     id="path10" />
  <polygon
     points="15.777,8.389 10.703,10.797 16.186,13.58 21.082,11.064 "
     style="fill:#6483c0"
     id="polygon12"
     transform="translate(0,-4.9540254)" />
  <path
     d="m 16.187,8.8339746 -5.9,-3 5.5,-2.608 5.709,2.879 z m -5.065,-2.988 5.064,2.57 4.49,-2.308 -4.9,-2.471 z"
     id="path14" />
  <polygon
     points="18.957,20.118 18.957,15.829 24.515,18.575 24.515,23.043 "
     style="fill:#952781"
     id="polygon16"
     transform="translate(0,-4.9540254)" />
  <path
     d="m 24.7,18.394975 -5.926,-3.12 v -4.7 l 5.926,2.931 z m -5.557,-3.343 5.188,2.731 v -4.048 l -5.188,-2.564 z"
     id="path18" />
  <polygon
     points="29.815,16.09 24.871,18.575 24.871,23.043 29.815,20.55 "
     style="fill:#952781"
     id="polygon20"
     transform="translate(0,-4.9540254)" />
  <path
     d="m 24.687,18.388975 v -4.882 l 5.313,-2.67 v 4.873 z m 0.369,-4.655 v 4.055 l 4.575,-2.308 v -4.046 z"
     id="path22" />
  <polygon
     points="24.364,13.346 19.203,15.546 24.687,18.329 29.583,15.812 "
     style="fill:#952781"
     id="polygon24"
     transform="translate(0,-4.9540254)" />
  <path
     d="m 24.687,13.581975 -5.92,-3.005 5.6,-2.3870004 L 30,10.850975 Z m -5.047,-2.976 5.046,2.561 4.479,-2.3 -4.806,-2.2700004 z"
     id="path26" />
  <polygon
     points="2.19,19.786 2.19,15.496 7.748,18.243 7.748,22.711 "
     style="fill:#d87b30"
     id="polygon28"
     transform="translate(0,-4.9540254)" />
  <path
     d="m 7.932,18.062975 -5.926,-3.117 v -4.7 l 5.926,2.929 z m -5.557,-3.343 5.188,2.731 v -4.048 l -5.188,-2.564 z"
     id="path30" />
  <polygon
     points="13.048,15.758 8.104,18.243 8.104,22.711 13.048,20.218 "
     style="fill:#d87b30"
     id="polygon32"
     transform="translate(0,-4.9540254)" />
  <path
     d="m 7.92,18.056975 v -4.882 l 5.313,-2.67 v 4.873 z m 0.369,-4.655 v 4.055 l 4.575,-2.311 v -4.043 z"
     id="path34" />
  <polygon
     points="7.597,13.014 2.436,15.213 7.92,17.997 12.816,15.48 "
     style="fill:#d87b30"
     id="polygon36"
     transform="translate(0,-4.9540254)" />
  <path
     d="m 7.92,13.245975 -5.92,-3 5.6,-2.3870004 5.632,2.6610004 z m -5.047,-2.972 5.046,2.561 4.479,-2.3 -4.806,-2.2700004 z"
     id="path38" />
  <polygon
     points="10.875,20.585 10.875,16.296 16.432,19.042 16.432,23.511 "
     style="fill:#e0d400"
     id="polygon40"
     transform="translate(0,-4.9540254)" />
  <path
     d="m 16.617,18.861975 -5.926,-3.116 v -4.7 l 5.926,2.929 z m -5.557,-3.342 5.188,2.731 v -4.048 l -5.188,-2.564 z"
     id="path42" />
  <polygon
     points="21.733,16.557 16.789,19.042 16.789,23.511 21.733,21.017 "
     style="fill:#e0d400"
     id="polygon44"
     transform="translate(0,-4.9540254)" />
  <path
     d="m 16.6,18.856975 v -4.882 l 5.313,-2.67 v 4.873 z m 0.369,-4.655 v 4.055 l 4.58,-2.311 v -4.043 z"
     id="path46" />
  <polygon
     points="16.196,13.593 11.121,16.001 16.605,18.784 21.501,16.267 "
     style="fill:#e0d400"
     id="polygon48"
     transform="translate(0,-4.9540254)" />
  <path
     d="m 16.605,14.036975 -5.9,-3 5.5,-2.6080004 5.709,2.8790004 z m -5.065,-2.985 5.064,2.57 4.49,-2.308 -4.9,-2.4710004 z"
     id="path50" />
  <text
     xml:space="preserve"
     style="font-size:11.4749px;fill:#ffffff;stroke:#101010;stroke-width:0.49999999;stroke-dasharray:none;stroke-opacity:1"
     x="4.5571289"
     y="28.347921"
     id="text302"
     transform="scale(0.95480618,1.047333)"><tspan
       sodipodi:role="line"
       id="tspan300"
       x="4.5571289"
       y="28.347921"
       style="font-style:normal;font-variant:normal;font-weight:bold;font-stretch:normal;font-size:10.6667px;font-family:'Bitstream Vera Sans';-inkscape-font-specification:'Bitstream Vera Sans, Bold';font-variant-ligatures:normal;font-variant-caps:normal;font-variant-numeric:normal;font-variant-east-asian:normal;fill:#ffffff;stroke:#101010;stroke-width:0.49999999;stroke-dasharray:none;stroke-opacity:1">VBA</tspan></text>
  <text
     xml:space="preserve"
     style="font-style:normal;font-variant:normal;font-weight:900;font-stretch:normal;font-size:12px;font-family:'Noto Sans';-inkscape-font-specification:'Noto Sans, Heavy';font-variant-ligatures:normal;font-variant-caps:normal;font-variant-numeric:normal;font-variant-east-asian:normal;fill:#00ff00;stroke:#ffffff;stroke-width:0.2;stroke-dasharray:none;stroke-opacity:1"
     x="38.510811"
     y="12.068328"
     id="text1797"><tspan
       sodipodi:role="line"
       id="tspan1795"
       x="38.510811"
       y="12.068328" /></text>
  <text
     xml:space="preserve"
     style="font-style:normal;font-variant:normal;font-weight:normal;font-stretch:normal;font-size:12px;font-family:'Bitstream Vera Sans';-inkscape-font-specification:'Bitstream Vera Sans, Normal';font-variant-ligatures:normal;font-variant-caps:normal;font-variant-numeric:normal;font-variant-east-asian:normal;fill:#00ff00;stroke:#ffffff;stroke-width:0.3;stroke-dasharray:none;stroke-opacity:1"
     x="39.71455"
     y="12.670713"
     id="text1972"><tspan
       sodipodi:role="line"
       id="tspan1970" /></text>
</svg>
