<svg width="1280" height="720" xmlns="http://www.w3.org/2000/svg"
    xmlns:xlink="http://www.w3.org/1999/xlink" overflow="hidden">
    <g>
        
        <path
            d="M43 355.5C43 176.836 270.439 32 551 32 831.561 32 1059 176.836 1059 355.5 1059 534.164 831.561 679 551 679 270.439 679 43 534.164 43 355.5Z"
            stroke="#042433" stroke-width="2" stroke-miterlimit="8" fill="#156082"
            fill-rule="evenodd" />
        <path
            d="M61 320C61 167.569 254.861 44 494 44 733.139 44 927 167.569 927 320 927 472.431 733.139 596 494 596 254.861 596 61 472.431 61 320Z"
            stroke="#042433" stroke-width="2" stroke-miterlimit="8" fill="#867DB1"
            fill-rule="evenodd" />
        <path
            d="M86 276.5C86 162.453 230.836 70 409.5 70 588.164 70 733 162.453 733 276.5 733 390.547 588.164 483 409.5 483 230.836 483 86 390.547 86 276.5Z"
            stroke="#042433" stroke-width="2" stroke-miterlimit="8" fill="#2C6353"
            fill-rule="evenodd" />
        <text fill="#FFFFFF" font-family="Aptos,Aptos_MSFontService,sans-serif" font-weight="400"
            font-size="64" transform="translate(354.257 297)">VB6</text>
        <text fill="#FFFFFF" font-family="Aptos,Aptos_MSFontService,sans-serif" font-weight="400"
            font-size="64" transform="translate(701.698 441)">VBA</text>
        <path
            d="M1055.86 657.181C1050.31 657.244 1046.34 657.765 1043.93 658.744 1041.53 659.723 1040.32 661.327 1040.32 663.556 1040.32 665.077 1040.81 666.291 1041.78 667.197 1042.75 668.103 1044.17 668.556 1046.04 668.556 1048.13 668.556 1050 668.067 1051.67 667.088 1053.33 666.108 1054.73 664.869 1055.86 663.369ZM1085.26 645.244C1083.03 645.244 1081.15 645.838 1079.62 647.025 1078.09 648.213 1076.9 649.598 1076.04 651.181L1076.04 662.931C1076.88 664.515 1078 665.801 1079.42 666.791 1080.83 667.78 1082.57 668.275 1084.64 668.275 1087.41 668.275 1089.5 667.28 1090.9 665.291 1092.31 663.301 1093.01 660.463 1093.01 656.775 1093.01 653.046 1092.36 650.192 1091.04 648.213 1089.73 646.233 1087.8 645.244 1085.26 645.244ZM909.825 641.556 915.043 641.556 915.043 671.994 909.825 671.994ZM1032.42 641.181 1033.04 641.181 1033.04 645.963 1032.32 645.963C1030.8 645.963 1029.47 646.161 1028.32 646.556 1027.18 646.952 1026.18 647.499 1025.32 648.197 1024.47 648.895 1023.71 649.702 1023.04 650.619L1023.04 671.994 1017.82 671.994 1017.82 641.556 1022.73 641.556 1022.92 646.744C1023.77 645.161 1024.96 643.838 1026.48 642.775 1028 641.713 1029.98 641.181 1032.42 641.181ZM941.762 641.119C945.095 641.119 947.522 642.103 949.043 644.072 950.564 646.041 951.325 648.806 951.325 652.369L951.325 671.994 946.106 671.994 946.106 653.119C946.106 651.64 945.95 650.327 945.637 649.181 945.325 648.036 944.767 647.135 943.965 646.478 943.163 645.822 942.002 645.494 940.481 645.494 938.21 645.494 936.304 646.01 934.762 647.041 933.22 648.072 931.981 649.202 931.043 650.431L931.043 671.994 925.825 671.994 925.825 641.556 930.825 641.556 931.012 646.244C931.95 645.015 933.293 643.853 935.043 642.76 936.793 641.666 939.033 641.119 941.762 641.119ZM1086.23 641.025C1088.73 641.025 1090.89 641.614 1092.7 642.791 1094.51 643.968 1095.91 645.723 1096.9 648.056 1097.89 650.39 1098.39 653.296 1098.39 656.775 1098.39 660.213 1097.86 663.103 1096.81 665.447 1095.76 667.791 1094.27 669.562 1092.36 670.76 1090.44 671.957 1088.19 672.556 1085.61 672.556 1083.44 672.556 1081.54 672.124 1079.92 671.26 1078.29 670.395 1076.99 669.213 1076.01 667.713L1076.01 683.181 1070.82 683.181 1070.82 641.556 1075.89 641.556 1076.04 646.525C1077.13 644.9 1078.53 643.577 1080.25 642.556 1081.97 641.536 1083.96 641.025 1086.23 641.025ZM1049.04 641.025C1050.61 641.025 1052.1 641.171 1053.53 641.463 1054.95 641.754 1056.24 642.286 1057.37 643.056 1058.51 643.827 1059.41 644.905 1060.07 646.291 1060.74 647.676 1061.07 649.463 1061.07 651.65L1061.07 671.994 1056.2 671.994 1055.98 667.369C1054.58 668.931 1052.97 670.187 1051.12 671.135 1049.28 672.082 1047.13 672.556 1044.67 672.556 1042.92 672.556 1041.32 672.223 1039.87 671.556 1038.42 670.89 1037.27 669.905 1036.4 668.603 1035.54 667.301 1035.11 665.692 1035.11 663.775 1035.11 661.046 1035.96 658.973 1037.67 657.556 1039.38 656.14 1041.79 655.176 1044.92 654.666 1048.04 654.155 1051.7 653.879 1055.89 653.838L1055.89 651.713C1055.89 649.108 1055.24 647.322 1053.95 646.353 1052.66 645.385 1051.02 644.9 1049.04 644.9 1046.94 644.9 1045.17 645.431 1043.73 646.494 1042.29 647.556 1041.57 649.233 1041.57 651.525L1036.51 651.525C1036.51 649.025 1037.05 647.004 1038.12 645.463 1039.19 643.921 1040.67 642.796 1042.56 642.088 1044.44 641.379 1046.61 641.025 1049.04 641.025ZM955.856 629.931 961.762 629.931 971.262 665.025 981.293 629.931 987.575 629.931 997.637 665.025 1007.2 629.931 1012.82 629.931 1000.54 671.994 994.668 671.994 984.325 636.431 974.137 671.994 968.168 671.994ZM847.856 629.931 853.762 629.931 863.262 665.025 873.293 629.931 879.575 629.931 889.637 665.025 899.2 629.931 904.825 629.931 892.543 671.994 886.668 671.994 876.325 636.431 866.137 671.994 860.168 671.994ZM912.418 629.775C913.397 629.775 914.189 630.062 914.793 630.635 915.397 631.207 915.7 631.931 915.7 632.806 915.7 633.681 915.397 634.405 914.793 634.978 914.189 635.551 913.397 635.838 912.418 635.838 911.439 635.838 910.653 635.551 910.059 634.978 909.465 634.405 909.168 633.681 909.168 632.806 909.168 631.931 909.465 631.207 910.059 630.635 910.653 630.062 911.439 629.775 912.418 629.775Z"
            stroke="#404040" stroke-linejoin="round" stroke-miterlimit="10" fill="#FFFFFF"
            fill-rule="evenodd" />
        <text fill="#000000" fill-opacity="0" font-family="Arial,Arial_MSFontService,sans-serif"
            font-size="53.4062" x="847.856" y="676.506">WinWrap</text>
        <path
            d="M1177.74 657.181C1172.2 657.244 1168.23 657.765 1165.82 658.744 1163.41 659.723 1162.21 661.327 1162.21 663.556 1162.21 665.077 1162.7 666.291 1163.66 667.197 1164.63 668.103 1166.05 668.556 1167.93 668.556 1170.01 668.556 1171.89 668.067 1173.55 667.088 1175.22 666.108 1176.62 664.869 1177.74 663.369ZM1125.8 652.369 1125.8 667.306 1134.93 667.306C1136.7 667.306 1138.34 667.082 1139.84 666.635 1141.34 666.187 1142.53 665.395 1143.43 664.26 1144.33 663.124 1144.77 661.556 1144.77 659.556 1144.77 657.14 1143.9 655.338 1142.15 654.15 1140.4 652.963 1137.99 652.369 1134.93 652.369ZM1223.71 641.556 1228.93 641.556 1228.93 671.994 1223.71 671.994ZM1251.09 641.025C1253.44 641.025 1255.56 641.411 1257.45 642.181 1259.33 642.952 1260.84 644.114 1261.96 645.666 1263.09 647.218 1263.68 649.181 1263.74 651.556L1258.59 651.556C1258.46 649.598 1257.75 648.056 1256.46 646.931 1255.17 645.806 1253.41 645.244 1251.18 645.244 1248.22 645.244 1246.01 646.26 1244.55 648.291 1243.1 650.322 1242.37 653.171 1242.37 656.838 1242.37 659.275 1242.69 661.343 1243.34 663.041 1243.98 664.739 1244.96 666.041 1246.27 666.947 1247.59 667.853 1249.22 668.306 1251.18 668.306 1253.41 668.306 1255.22 667.728 1256.62 666.572 1258.01 665.416 1258.74 663.723 1258.8 661.494L1263.96 661.494C1263.9 663.952 1263.3 665.999 1262.16 667.635 1261.03 669.27 1259.5 670.494 1257.57 671.306 1255.64 672.119 1253.48 672.525 1251.09 672.525 1248.34 672.525 1245.9 671.947 1243.77 670.791 1241.65 669.635 1239.99 667.895 1238.79 665.572 1237.59 663.249 1236.99 660.338 1236.99 656.838 1236.99 653.338 1237.58 650.416 1238.76 648.072 1239.94 645.728 1241.58 643.968 1243.7 642.791 1245.81 641.614 1248.27 641.025 1251.09 641.025ZM1203.15 641.025C1204.75 641.025 1206.26 641.213 1207.66 641.588 1209.07 641.963 1210.31 642.546 1211.38 643.338 1212.46 644.129 1213.3 645.15 1213.93 646.4 1214.55 647.65 1214.87 649.15 1214.87 650.9L1209.8 650.9C1209.8 648.733 1209.16 647.202 1207.87 646.306 1206.58 645.411 1205 644.963 1203.15 644.963 1201.27 644.963 1199.75 645.296 1198.59 645.963 1197.42 646.629 1196.84 647.671 1196.84 649.088 1196.84 649.9 1197.1 650.588 1197.62 651.15 1198.14 651.713 1199.01 652.218 1200.24 652.666 1201.47 653.114 1203.13 653.588 1205.21 654.088 1207.48 654.629 1209.39 655.275 1210.93 656.025 1212.47 656.775 1213.63 657.739 1214.41 658.916 1215.2 660.093 1215.59 661.598 1215.59 663.431 1215.59 665.015 1215.28 666.385 1214.66 667.541 1214.05 668.697 1213.2 669.645 1212.1 670.385 1211.01 671.124 1209.73 671.671 1208.26 672.025 1206.79 672.379 1205.2 672.556 1203.49 672.556 1201.78 672.556 1200.16 672.369 1198.63 671.994 1197.1 671.619 1195.75 671.025 1194.59 670.213 1193.42 669.4 1192.51 668.332 1191.85 667.01 1191.2 665.687 1190.87 664.088 1190.87 662.213L1195.9 662.213C1195.9 664.588 1196.63 666.26 1198.1 667.228 1199.57 668.197 1201.41 668.681 1203.62 668.681 1205.6 668.681 1207.23 668.301 1208.51 667.541 1209.79 666.78 1210.43 665.525 1210.43 663.775 1210.43 662.275 1209.85 661.161 1208.7 660.431 1207.54 659.702 1205.5 658.994 1202.59 658.306 1200.21 657.744 1198.21 657.093 1196.59 656.353 1194.96 655.614 1193.74 654.676 1192.93 653.541 1192.12 652.405 1191.71 650.973 1191.71 649.244 1191.71 647.89 1192 646.697 1192.57 645.666 1193.14 644.635 1193.95 643.775 1194.98 643.088 1196.01 642.4 1197.22 641.885 1198.62 641.541 1200.01 641.197 1201.52 641.025 1203.15 641.025ZM1170.93 641.025C1172.49 641.025 1173.99 641.171 1175.41 641.463 1176.84 641.754 1178.12 642.286 1179.26 643.056 1180.39 643.827 1181.29 644.905 1181.96 646.291 1182.63 647.676 1182.96 649.463 1182.96 651.65L1182.96 671.994 1178.09 671.994 1177.87 667.369C1176.47 668.931 1174.85 670.187 1173.01 671.135 1171.16 672.082 1169.01 672.556 1166.55 672.556 1164.8 672.556 1163.21 672.223 1161.76 671.556 1160.31 670.89 1159.15 669.905 1158.29 668.603 1157.42 667.301 1156.99 665.692 1156.99 663.775 1156.99 661.046 1157.85 658.973 1159.55 657.556 1161.26 656.14 1163.68 655.176 1166.8 654.666 1169.93 654.155 1173.59 653.879 1177.77 653.838L1177.77 651.713C1177.77 649.108 1177.13 647.322 1175.84 646.353 1174.54 645.385 1172.91 644.9 1170.93 644.9 1168.83 644.9 1167.05 645.431 1165.62 646.494 1164.18 647.556 1163.46 649.233 1163.46 651.525L1158.4 651.525C1158.4 649.025 1158.94 647.004 1160.01 645.463 1161.08 643.921 1162.56 642.796 1164.45 642.088 1166.33 641.379 1168.49 641.025 1170.93 641.025ZM1125.8 634.556 1125.8 647.806 1133.65 647.806C1136.36 647.806 1138.42 647.187 1139.85 645.947 1141.28 644.707 1141.99 643.036 1141.99 640.931 1141.99 639.515 1141.67 638.332 1141.02 637.385 1140.38 636.437 1139.44 635.728 1138.2 635.26 1136.96 634.791 1135.44 634.556 1133.65 634.556ZM1120.18 629.931 1133.68 629.931C1137.91 629.931 1141.29 630.786 1143.82 632.494 1146.35 634.202 1147.62 636.806 1147.62 640.306 1147.62 642.515 1147 644.483 1145.76 646.213 1144.52 647.942 1142.88 649.067 1140.84 649.588 1143.75 650.067 1146.08 651.228 1147.8 653.072 1149.53 654.916 1150.4 657.192 1150.4 659.9 1150.4 662.442 1149.84 664.614 1148.71 666.416 1147.59 668.218 1145.89 669.598 1143.62 670.556 1141.35 671.515 1138.48 671.994 1135.02 671.994L1120.18 671.994ZM1226.3 629.775C1227.28 629.775 1228.08 630.062 1228.68 630.635 1229.28 631.207 1229.59 631.931 1229.59 632.806 1229.59 633.681 1229.28 634.405 1228.68 634.978 1228.08 635.551 1227.28 635.838 1226.3 635.838 1225.33 635.838 1224.54 635.551 1223.95 634.978 1223.35 634.405 1223.05 633.681 1223.05 632.806 1223.05 631.931 1223.35 631.207 1223.95 630.635 1224.54 630.062 1225.33 629.775 1226.3 629.775Z"
            stroke="#404040" stroke-linejoin="round" stroke-miterlimit="10" fill="#FFFFFF"
            fill-rule="evenodd" />
        <text fill="#000000" fill-opacity="0" font-family="Arial,Arial_MSFontService,sans-serif"
            font-size="42.7812" x="1120.18" y="667.209">Basic</text>
    </g>
</svg>